<svg fill="#000000" version="1.1" id="Layer_1" xmlns="http://www.w3.org/2000/svg" xmlns:xlink="http://www.w3.org/1999/xlink" width="24px" height="24px" viewBox="0 0 0.6 0.6" enable-background="new 0 0 20 20" xml:space="preserve"><path d="M0.51 0.42H0.12c-0.018 0 -0.03 -0.012 -0.03 -0.03V0.06H0V0h0.12c0.018 0 0.03 0.012 0.03 0.03v0.33h0.336l0.045 -0.18H0.21V0.12h0.36c0.018 0 0.033 0.018 0.03 0.036l-0.06 0.24c-0.003 0.015 -0.015 0.024 -0.03 0.024z"/><path cx="5" cy="18" r="2" d="M0.21 0.54A0.06 0.06 0 0 1 0.15 0.6A0.06 0.06 0 0 1 0.09 0.54A0.06 0.06 0 0 1 0.21 0.54z"/><path cx="16" cy="18" r="2" d="M0.54 0.54A0.06 0.06 0 0 1 0.48 0.6A0.06 0.06 0 0 1 0.42 0.54A0.06 0.06 0 0 1 0.54 0.54z"/></svg>